<svg width="23" height="23" viewBox="0 0 23 23" fill="none" xmlns="http://www.w3.org/2000/svg">
<path fill-rule="evenodd" clip-rule="evenodd" d="M7.1875 0H15.8125C19.7814 0 23 3.21856 23 7.1875V15.8125C23 19.7814 19.7814 23 15.8125 23H7.1875C3.21856 23 0 19.7814 0 15.8125V7.1875C0 3.21856 3.21856 0 7.1875 0ZM15.8125 20.8443C18.5869 20.8443 20.8438 18.5874 20.8438 15.813V7.18801C20.8438 4.41363 18.5869 2.15676 15.8125 2.15676H7.18753C4.41316 2.15676 2.15628 4.41363 2.15628 7.18801V15.813C2.15628 18.5874 4.41316 20.8443 7.18753 20.8443H15.8125Z" fill="white"/>
<path fill-rule="evenodd" clip-rule="evenodd" d="M5.75 11.5002C5.75 8.32481 8.32456 5.75024 11.5 5.75024C14.6754 5.75024 17.25 8.32481 17.25 11.5002C17.25 14.6757 14.6754 17.2502 11.5 17.2502C8.32456 17.2502 5.75 14.6757 5.75 11.5002ZM7.90628 11.5003C7.90628 13.4812 9.51916 15.0941 11.5 15.0941C13.4809 15.0941 15.0938 13.4812 15.0938 11.5003C15.0938 9.51801 13.4809 7.90658 11.5 7.90658C9.51916 7.90658 7.90628 9.51801 7.90628 11.5003Z" fill="white"/>
<circle cx="17.6812" cy="5.31868" r="0.766187" fill="white"/>
</svg>
