<svg id="a005eea6-4cad-44ad-89b1-6ac83ea20156" data-name="Layer 1" xmlns="http://www.w3.org/2000/svg" xmlns:xlink="http://www.w3.org/1999/xlink" viewBox="0 0 1280 1024"><defs><style>.b53d451f-54bf-43e5-aa83-296067cc2974,.b9b11289-3899-404d-ad2f-8ee6f1d47191{fill:none;stroke:#fff;stroke-miterlimit:10;stroke-width:2px;}.b53d451f-54bf-43e5-aa83-296067cc2974{stroke-dasharray:12.02 12.02;}.a5868201-5ed3-40da-93ad-818a32ed55ae{fill:url(#b81321e8-f2aa-4c5b-89b9-422309e41b5b);}.f49f149f-31ab-49da-80dd-2daf4f231d4b{fill:#802382;}.aa0b234a-d86a-4922-88a9-fe4d65ca89a8{fill:#fff;}</style><linearGradient id="b81321e8-f2aa-4c5b-89b9-422309e41b5b" x1="1182.34" y1="512.25" x2="1192.79" y2="512.25" gradientTransform="matrix(-1, 0, 0, 1, 1317.82, 0)" gradientUnits="userSpaceOnUse"><stop offset="0" stop-color="#9c9b9b"/><stop offset="0.26" stop-color="#afafaf"/><stop offset="0.73" stop-color="#cecdcd"/><stop offset="1" stop-color="#d9d9d9"/></linearGradient></defs><path class="b9b11289-3899-404d-ad2f-8ee6f1d47191" d="M1159.16,561.37l-6,.34"/><path class="b53d451f-54bf-43e5-aa83-296067cc2974" d="M1141.17,562.5c-66.79,4.84-98,15-139.88,27.2-119.14,34.76-217,73.3-303.63,24.53-52.51-29.56-107.5-55.61-124.16-60.89-44-14-51.38-17.41-106.2-40.21-26.27-10.93-51.55-21.44-57.9-43.27C397.4,428.64,456,358,514.21,364.62c23.56,2.67,46.5,18,58.14,39.5,28.31,52.39-14,134.7-70.56,164.1-32.39,16.83-56.46,9.56-117.81,7.94C339.5,575,224,590,143,604.94"/><path class="b9b11289-3899-404d-ad2f-8ee6f1d47191" d="M137.07,606l-5.89,1.13"/><path class="a5868201-5ed3-40da-93ad-818a32ed55ae" d="M125,582.38a5.62,5.62,0,0,0,10.45,0V438.58H125Z"/><circle class="f49f149f-31ab-49da-80dd-2daf4f231d4b" cx="131.18" cy="405.02" r="59.78"/><circle class="aa0b234a-d86a-4922-88a9-fe4d65ca89a8" cx="107.13" cy="374.93" r="13.48"/><path class="aa0b234a-d86a-4922-88a9-fe4d65ca89a8" d="M1198.94,432.83l-2.17.67s-.26-1.86-.47-4.13-1-3.95-2.33-7a17.79,17.79,0,0,0-4.54-5.92,20,20,0,0,0-2.81-1.88s-.33-.14-2.7-1.23-6.69-1.23-6.69-1.23h-32.74c-2.46,0-6,.21-6,.21a22.13,22.13,0,0,0-6.59,2.21,18.9,18.9,0,0,0-5.77,4.95,18.33,18.33,0,0,0-2.23,3.83c-1.62,3.23-2.23,10.27-2.23,10.27l-2.19-.73v-3.95l0-.07c0-.06-3.17-.45-5.14-.59a8.6,8.6,0,0,0-3.85.64,4,4,0,0,0-1.57,1.94,5.15,5.15,0,0,0,.35,2.17,4.38,4.38,0,0,0,2.08,1.78c1.64.8,6.44,1.1,6.44,1.1l.73,1.15c-1.31.33-2.87,7.2-2.87,7.2v12.45a3.91,3.91,0,0,0,2.14,2.54v7.39a5.42,5.42,0,0,0,5.42,5.42h6.18a5.42,5.42,0,0,0,5.42-5.42v-3.33c4.65.54,8.65.79,9.93.93,3.54.38,26.14,0,26.14,0,3.37-.14,8.48-.55,13-1v3.41a5.42,5.42,0,0,0,5.41,5.42h6.18a5.42,5.42,0,0,0,5.42-5.42v-7.82a6.32,6.32,0,0,0,.89-.67,2.61,2.61,0,0,0,1-1.89l-.14-6.39s-.08-4.68-.1-5.31a9,9,0,0,0-.21-1.51,13,13,0,0,0-2.45-5.95s.32-1.31.43-1.25a32.59,32.59,0,0,0,4.28-.3,9.39,9.39,0,0,0,3-1,4,4,0,0,0,1.54-1.27,3.54,3.54,0,0,0,.49-2.52,2.41,2.41,0,0,0-1-1.45,3.84,3.84,0,0,0-1.62-.69,11.67,11.67,0,0,0-2.21-.3,25.14,25.14,0,0,0-3,.11c-.69,0-2.77.47-2.77.47Zm-75.11,23.91c-3.43-2.29-3.63-9.75,0-11.84s16.41,5.25,16.61,8.27S1127.26,459,1123.83,456.74Zm1.82-22.39V432a15.92,15.92,0,0,1,15.92-15.92h35.28A15.91,15.91,0,0,1,1192.76,432v2.31Zm69,22.39c-3.43,2.28-16.81-.68-16.61-3.57s13-10.49,16.61-8.27S1198.06,454.45,1194.63,456.74Z"/><path class="aa0b234a-d86a-4922-88a9-fe4d65ca89a8" d="M1159.27,370a72.16,72.16,0,0,0-64,105.47,207.7,207.7,0,0,0,10.14,18.5c5.71,9.23,12,17.56,14.74,21.12,3.54,4.66,6.27,8,8.34,10.48,5.59,6.77,15,17.74,25.71,23.25,1.32.68,3.63,2.5,6.22,1.57a31.09,31.09,0,0,0,9.82-5.34c10-8.2,14.08-13.38,14.08-13.38,6-6.62,9.08-10.42,13.75-16.42,3.78-4.84,6.42-8.65,8.13-11.13a188.41,188.41,0,0,0,10.7-16.91c1.81-3.27,3.13-5.67,4.19-7.91A72.15,72.15,0,0,0,1159.27,370Zm0,131.59a58.7,58.7,0,1,1,58.69-58.7A58.7,58.7,0,0,1,1159.27,501.59Z"/></svg>