<svg id="Layer_1" data-name="Layer 1" xmlns="http://www.w3.org/2000/svg" viewBox="0 0 954.67 1162.72"><defs><style>.cls-1{fill:#fff;}</style></defs><path class="cls-1" d="M113.15,1159c.68,11.55-19,28.21-29.24,33.31,8.84-6.8,14.28-13.94,16.66-20.74-8.84,1.36-19.72-3.4-20.4-15V1108c0-7.14-.34-14.28-.68-22.1a150.29,150.29,0,0,1,.68-21.76,7.49,7.49,0,0,1,.34-2.72c1.36-16,4.42-30.6,24.82-37.4-9.52,7.14-15,15.64-16,25.16a21.18,21.18,0,0,1,7.14-1l6.12.68c6.8,2.38,10.2,7.14,10.2,14.62v7.14l41.48-8.5c0-5.78-.34-18.7-2.38-24.48-9.52-18.7-26.52-27.88-51.34-27.88v.68H93.09a71.15,71.15,0,0,0-25.84,4.42c-19.72,7.48-29.58,21.76-29.58,43.18v100c-.34,21.41,9.86,36,29.58,43.51a75.11,75.11,0,0,0,25.84,4.42h7.48c24.82,0,41.82-9.18,51.34-27.88,2.38-6.8,3.74-12.58,3.74-17.68v-4.07l-42.5-6.12Z" transform="translate(-37.67 -43.14)"/><path class="cls-1" d="M241.66,1010.37c-26.18,2.72-50,19.72-50,49v144.49l1.36,1.36H233.5l1.7-1.36V1161l-16.32-3.73h46.24v46.91l1.7,1.36H308l1.36-1.36V1060.69c0-6.46-.68-11.9-2.38-16C296.4,1018.87,267.5,1007.65,241.66,1010.37Zm23.12,106.76H234.86v-52.7c0-11.22,5.1-16.32,15.3-16a28.56,28.56,0,0,1,6.46,1c-1-3.74-3.4-7.82-6.8-11.9s-7.14-8.5-11.22-12.92c9.18,6.8,20.06,13.94,24.48,29.24a11.74,11.74,0,0,1,1.7,6.12Z" transform="translate(-37.67 -43.14)"/><path class="cls-1" d="M408.25,1010H377v-.34H345.35v195.49h43.18v-57.11h17.34a83,83,0,0,0,28.9-4.76c19-7.82,28.56-21.76,28.56-42.16v-45.56a52,52,0,0,0-3.4-17.68C450.07,1019.21,433.07,1010,408.25,1010Zm8.84,88.74c0,8.5-3.74,12.58-11.22,12.58h-18v-63.58H412c1.36-9.52-3.74-17.68-9.18-27.2,12.58,12.92,14.28,23.12,14.28,39.44Z" transform="translate(-37.67 -43.14)"/><polygon class="cls-1" points="461.36 1002.59 493.66 1002.59 493.66 1162.38 536.83 1162.38 536.83 1002.59 569.13 1002.59 569.13 966.9 461.36 966.9 461.36 1002.59"/><path class="cls-1" d="M693.15,1010.37c-26.18,2.72-50,19.72-50,49v144.49l1.36,1.36H685l1.7-1.36V1161l-16.32-3.73h46.24v46.91l1.7,1.36h41.14l1.36-1.36V1060.69c0-6.46-.68-11.9-2.38-16C747.89,1018.87,719,1007.65,693.15,1010.37Zm23.12,106.76H686.35v-52.7c0-11.22,5.1-16.32,15.3-16a28.56,28.56,0,0,1,6.46,1c-1-3.74-3.4-7.82-6.8-11.9s-7.14-8.5-11.22-12.92c9.18,6.8,20.06,13.94,24.48,29.24a11.74,11.74,0,0,1,1.7,6.12Z" transform="translate(-37.67 -43.14)"/><rect class="cls-1" x="759.18" y="967.24" width="43.18" height="195.15"/><path class="cls-1" d="M991.65,1010.71v-.34H947.8a.33.33,0,0,0-.34.34v71.4l6.12,15.64c-15-23.8-30.26-49.64-45.56-75.48-11.56-17.67-32-16.31-32,7.48v175.09c0,.34.34.34.68.34h43.52l.34-.34v-70l-7.48-20.06,7.48,12.58,39.78,66.29c11.21,17.68,32,16.66,32-7.48V1011.05C992.33,1010.71,992,1010.71,991.65,1010.71Z" transform="translate(-37.67 -43.14)"/><path class="cls-1" d="M698.93,968.22h1a45.34,45.34,0,0,0,18.36-3.4c12.24-5.78,22.78-15.64,22.78-30.6V887.3H700v28.56h12.24v10.88a11.64,11.64,0,0,1-1.7,7.48c-1.36,8.16-7.14,15.3-17,21.42,2-2.72,4.42-5.1,6.46-7.82A13.52,13.52,0,0,0,704,940c-6.46,2.72-14.62-.34-15.3-13.26v-59.5c-1.36-13.93,7.82-26.85,19.72-34.33a140.23,140.23,0,0,0-10.2,13.26c-2.72,4.08-3.06,6.79-1.7,8.49,6.12-2,13.26,2,13.26,10.88v5.1l26.52-6.12c0-4.08-.34-13.59-1.7-17.67-6.12-13.26-17-20.06-33-20.06v-.34h-4.76a46.64,46.64,0,0,0-16.66,3.06c-12.58,5.44-18.7,16-18.7,31.61v71.74c0,6.8,1,12.58,3.06,17C670.37,962.1,681.59,968.22,698.93,968.22Z" transform="translate(-37.67 -43.14)"/><rect class="cls-1" x="726.88" y="783.65" width="27.54" height="141.77"/><path class="cls-1" d="M897.48,968.56V957.68H895.1c1.36-21.08-2.38-36.72-10.54-46.58-7.14,4.76-12.24,8.16-19.72,9.52,12.92-6.8,21.08-15.64,24.82-26.86v.68a56.41,56.41,0,0,0,.68-8.16V860.1a48.14,48.14,0,0,0-2-12.91c-6.12-13.6-17.34-20.4-33-20.4H815.2V968.56h27.54V919.94h9.86c10.2,1.7,15.64,13.94,15.64,23.46l-.34,25.16Zm-33.66-104v27.54c0,5.78-2.38,8.84-7.48,8.84H844.78V855.69h11.56a6.85,6.85,0,0,1,3.74,1c1-9.52-4.08-18-8.84-26.18,8.5,8.84,14.62,18.7,12.24,31.27A9.57,9.57,0,0,1,863.82,864.52Z" transform="translate(-37.67 -43.14)"/><path class="cls-1" d="M923.66,950.2q8.67,18.36,33.66,18.36h33.31V940.68H948.14c-8.5-.68-14.28-8.84-18.7-15,6.12,4.08,11.9,8.16,18.7,9.18h0V827.13H920.6V933.2l.34,6.12A34,34,0,0,0,923.66,950.2Z" transform="translate(-37.67 -43.14)"/><path class="cls-1" d="M692.62,360.81l-11,3.42s-1.34-9.42-2.38-20.91-5.07-20-11.79-35.49-18.63-25.87-23-29.9-14.18-9.52-14.18-9.52-1.66-.73-13.66-6.21S582.83,256,582.83,256H417.27c-12.42,0-30.52,1.06-30.52,1.06a111.55,111.55,0,0,0-33.32,11.18c-17.49,9.11-29.18,25-29.18,25s-3.11,3-11.28,19.35-11.28,52-11.28,52l-11.07-3.73v-20l-.21-.31c-.21-.31-16-2.28-26-3A43.47,43.47,0,0,0,245,340.74c-2.69.93-6.93,6.72-8,9.83s1.76,11,1.76,11,2.28,5,10.56,9,32.56,5.59,32.56,5.59l3.66,5.79c-6.63,1.66-14.49,36.42-14.49,36.42v62.92c.68,4.89,4.64,9.15,10.83,12.87v37.36a27.39,27.39,0,0,0,27.4,27.39h31.23a27.39,27.39,0,0,0,27.39-27.39V514.66c23.52,2.72,43.78,4,50.22,4.68,17.94,1.93,132.18,0,132.18,0,17.08-.67,42.89-2.76,65.78-5.09v17.24a27.39,27.39,0,0,0,27.39,27.39h31.23a27.39,27.39,0,0,0,27.4-27.39V491.94a31.84,31.84,0,0,0,4.52-3.37c5.38-5.17,5-9.59,5-9.59L711,446.7s-.41-23.66-.48-26.88a45.94,45.94,0,0,0-1.1-7.62C707.94,396.13,697,382.13,697,382.13s1.58-6.63,2.14-6.35,15.45-.41,21.66-1.52a47.61,47.61,0,0,0,14.9-4.83c5.1-2.55,4.83-3.45,7.79-6.41s2.77-9.73,2.49-12.76-2.56-5.18-4.9-7.32-5.31-2.62-8.21-3.51-7.8-1.25-11.18-1.52-11.58.27-15.1.55-14,2.38-14,2.38ZM312.83,481.71c-17.34-11.56-18.36-49.3,0-59.84,18.36-11.22,82.95,26.52,84,41.82C397.82,478.31,330.17,493.27,312.83,481.71ZM322,368.5V356.85a80.49,80.49,0,0,1,80.49-80.49H580.9a80.49,80.49,0,0,1,80.49,80.49V368.5ZM670.83,481.71c-17.34,11.56-85-3.4-84-18,1-15.3,66-53,84-41.82C689.19,432.41,688.17,470.15,670.83,481.71Z" transform="translate(-37.67 -43.14)"/><path class="cls-1" d="M492,43.14c-201.45,0-364.76,163.3-364.76,364.75a363.18,363.18,0,0,0,41.2,168.54A1050.34,1050.34,0,0,0,219.73,670c28.85,46.67,60.79,88.79,74.51,106.79,17.94,23.55,31.7,40.25,42.22,53,28.26,34.21,76,89.71,130,117.55,6.7,3.45,18.36,12.65,31.46,8,20.07-7.16,35.39-15.29,49.67-27,50.44-41.47,71.19-67.68,71.19-67.68,30.44-33.46,45.94-52.69,69.54-83,19.08-24.5,32.45-43.77,41.11-56.3,15.79-22.83,34-49.35,54.09-85.54,9.14-16.49,15.84-28.64,21.2-40a363.09,363.09,0,0,0,52.07-187.92C856.75,206.44,693.45,43.14,492,43.14Zm0,665.38c-163.92,0-296.8-132.88-296.8-296.8S328.08,114.92,492,114.92,788.8,247.8,788.8,411.72,655.92,708.52,492,708.52Z" transform="translate(-37.67 -43.14)"/></svg>