<svg
   width="23"
   height="23"
   viewBox="0 0 23 23"
   fill="none"
   xmlns="http://www.w3.org/2000/svg">
  <style
     type="text/css"
     id="style916">
	.st0{fill:#010202;}
	.st1{fill-rule:evenodd;clip-rule:evenodd;fill:#FFFFFF;}
	.st2{fill-rule:evenodd;clip-rule:evenodd;fill:#010202;}
</style>
  <g
     id="g944"
     transform="matrix(0.59290188,0,0,0.59290188,-289.22755,-266.56049)"
     style="stroke-width:1.68662;fill:#ffffff">
    <g
       id="Layer_1-7"
       style="stroke-width:1.68662;fill:#ffffff">
	
</g>
    <path
       class="st2"
       d="m 523.55131,479.15203 c -1.64744,0.91093 -2.73281,0.81403 -3.5856,1.35671 -0.71712,0.46516 -0.29072,1.473 -0.81402,1.82187 -0.6396,0.44578 -2.55837,-0.0388 -5.01984,0.77526 -2.03506,0.67836 -3.33363,2.59714 -6.97737,2.59714 -3.66312,0 -4.92292,-1.91878 -6.97737,-2.59714 -2.46146,-0.81402 -4.36086,-0.32948 -5.01983,-0.77526 -0.52331,-0.36825 -0.0969,-1.35671 -0.81403,-1.82187 -0.85279,-0.54268 -1.93816,-0.44578 -3.58559,-1.35671 -1.04661,-0.58145 -0.44578,-0.93032 -0.0969,-1.10475 5.95015,-2.88786 6.89985,-7.34562 6.95799,-7.67511 0.0581,-0.40701 0.11629,-0.71712 -0.32949,-1.12413 -0.42639,-0.38763 -2.30641,-1.56991 -2.82971,-1.91878 -0.87217,-0.60083 -1.2598,-1.20166 -0.96908,-1.95754 0.19382,-0.50392 0.67836,-0.69774 1.18228,-0.69774 0.15505,0 0.3101,0.0194 0.46516,0.0582 0.9497,0.21319 1.88001,0.67835 2.40331,0.81402 0.0775,0.0194 0.13567,0.0194 0.19382,0.0194 0.29072,0 0.38763,-0.13567 0.36825,-0.46516 -0.0582,-1.04661 -0.2132,-3.06229 -0.0388,-4.96169 0.23258,-2.59714 1.06598,-3.8957 2.07383,-5.03922 0.48454,-0.54268 2.7328,-2.92661 7.03551,-2.92661 4.3221,0 6.57036,2.38393 7.03552,2.92661 1.00784,1.14352 1.84125,2.44208 2.07383,5.03922 0.15505,1.8994 0.0194,3.91508 -0.0388,4.96169 -0.0194,0.34887 0.0775,0.46516 0.36825,0.46516 0.0581,0 0.11629,-0.0194 0.19381,-0.0194 0.54269,-0.13567 1.45362,-0.60083 2.40332,-0.81402 0.15506,-0.0388 0.31011,-0.0582 0.46516,-0.0582 0.50392,0 0.98846,0.19382 1.18228,0.69774 0.29072,0.7365 -0.0969,1.35671 -0.96908,1.95754 -0.5233,0.36825 -2.40332,1.53115 -2.82971,1.91878 -0.44578,0.40701 -0.38764,0.71712 -0.32949,1.12413 0.0388,0.32949 0.98846,4.78725 6.95799,7.67511 0.32949,0.15505 0.91093,0.5233 -0.13567,1.10475 z m 2.71342,-1.45362 c -0.27134,-0.7365 -0.77526,-1.12413 -1.35671,-1.43424 -0.11629,-0.0581 -0.2132,-0.11629 -0.29072,-0.15505 -0.17444,-0.0969 -0.34887,-0.17443 -0.52331,-0.27134 -1.80249,-0.9497 -3.21734,-2.17074 -4.2058,-3.60498 -0.32949,-0.48454 -0.56207,-0.93031 -0.71712,-1.27918 -0.0775,-0.23258 -0.0775,-0.36825 -0.0194,-0.50392 0.0388,-0.0969 0.17443,-0.19382 0.23258,-0.23258 0.3101,-0.2132 0.63959,-0.40702 0.85279,-0.56207 0.38763,-0.25196 0.69773,-0.44577 0.89155,-0.58145 0.7365,-0.5233 1.2598,-1.06598 1.58929,-1.6862 0.44578,-0.87217 0.50392,-1.86063 0.15505,-2.79094 -0.48454,-1.29857 -1.70558,-2.09322 -3.19796,-2.09322 -0.3101,0 -0.62021,0.0388 -0.93031,0.0969 -0.0775,0.0194 -0.15506,0.0388 -0.23258,0.0582 0.0194,-0.87217 0,-1.82187 -0.0775,-2.73281 -0.27134,-3.23672 -1.41486,-4.92292 -2.59713,-6.27963 -0.48454,-0.56207 -1.35672,-1.39548 -2.6359,-2.13198 -1.78311,-1.02722 -3.81818,-1.55053 -6.02767,-1.55053 -2.2095,0 -4.22519,0.52331 -6.02768,1.55053 -1.29856,0.7365 -2.15136,1.56991 -2.63589,2.13198 -1.18228,1.35671 -2.30641,3.04291 -2.59714,6.27963 -0.0775,0.93032 -0.0969,1.86064 -0.0775,2.73281 -0.0775,-0.0194 -0.15506,-0.0388 -0.23258,-0.0582 -0.31011,-0.0775 -0.62022,-0.0969 -0.93032,-0.0969 -1.473,0 -2.71342,0.81403 -3.19796,2.09322 -0.34887,0.93031 -0.29073,1.91877 0.15505,2.79094 0.32949,0.62022 0.83341,1.1629 1.58929,1.6862 0.19382,0.13568 0.50392,0.32949 0.89155,0.58145 0.2132,0.13567 0.5233,0.32949 0.81403,0.54268 0.0388,0.0388 0.2132,0.15506 0.25196,0.27135 0.0582,0.13567 0.0582,0.27134 -0.0194,0.5233 -0.15505,0.34887 -0.38763,0.77526 -0.69774,1.2598 -0.9497,1.39548 -2.32579,2.59714 -4.07013,3.54684 -0.93032,0.48453 -1.88002,0.81402 -2.30641,1.91877 -0.31011,0.83341 -0.0969,1.78311 0.67835,2.57775 0.25197,0.27135 0.58145,0.52331 0.98847,0.7365 0.94969,0.52331 1.76372,0.77527 2.40331,0.96908 0.11629,0.0388 0.36825,0.11629 0.48454,0.2132 0.29073,0.25196 0.23258,0.62021 0.62021,1.1629 0.23258,0.34887 0.48454,0.58145 0.71712,0.71712 0.79465,0.54268 1.6862,0.58144 2.6359,0.62021 0.85279,0.0388 1.82187,0.0775 2.92662,0.42639 0.46516,0.15506 0.93031,0.44578 1.49238,0.77526 1.33733,0.81403 3.13982,1.93816 6.18273,1.93816 3.04291,0 4.86478,-1.12413 6.18273,-1.93816 0.54268,-0.32948 1.02722,-0.6202 1.473,-0.77526 1.10475,-0.36825 2.07383,-0.40701 2.92662,-0.42639 0.9497,-0.0388 1.84125,-0.0775 2.63589,-0.62021 0.25196,-0.17444 0.56207,-0.44578 0.81403,-0.89156 0.27134,-0.46516 0.27134,-0.79464 0.5233,-1.00784 0.0969,-0.0969 0.32949,-0.17443 0.44578,-0.2132 0.63959,-0.17443 1.473,-0.42639 2.44208,-0.96908 0.42639,-0.23258 0.77526,-0.50392 1.02722,-0.79464 0,0 0,0 0.0194,-0.0194 0.67835,-0.75589 0.85279,-1.6862 0.56206,-2.50023 z"
       id="path929"
       style="stroke-width:1.68662;fill:#ffffff" />
  </g>
</svg>
