<svg
   width="23"
   height="23"
   viewBox="0 0 23 23"
   fill="none"
   version="1.1"
   id="svg8"
   sodipodi:docname="tiktok.svg"
   inkscape:version="1.1.2 (b8e25be8, 2022-02-05)"
   xmlns:inkscape="http://www.inkscape.org/namespaces/inkscape"
   xmlns:sodipodi="http://sodipodi.sourceforge.net/DTD/sodipodi-0.dtd"
   xmlns="http://www.w3.org/2000/svg"
   xmlns:svg="http://www.w3.org/2000/svg">
  <defs
     id="defs12" />
  <sodipodi:namedview
     id="namedview10"
     pagecolor="#505050"
     bordercolor="#eeeeee"
     borderopacity="1"
     inkscape:pageshadow="0"
     inkscape:pageopacity="0"
     inkscape:pagecheckerboard="0"
     showgrid="false"
     inkscape:zoom="11.283693"
     inkscape:cx="17.857629"
     inkscape:cy="31.860137"
     inkscape:window-width="1296"
     inkscape:window-height="1081"
     inkscape:window-x="0"
     inkscape:window-y="25"
     inkscape:window-maximized="0"
     inkscape:current-layer="svg8" />
  <path
     style="fill:#ffffff;fill-opacity:1;fill-rule:nonzero;stroke:none;stroke-width:1.33333"
     d="m 21.146964,9.3995998 c -0.18971,0.01785 -0.380083,0.02714 -0.570692,0.028 -2.090296,2.04e-4 -4.039863,-1.016844 -5.184893,-2.7050415 v 9.2112977 c 0,3.759991 -3.157514,6.808098 -7.0524649,6.808098 -3.894952,0 -7.0524651,-3.048107 -7.0524651,-6.808098 0,-3.759993 3.1575131,-6.8080992 7.0524651,-6.8080992 0.1472474,0 0.291147,0.01277 0.435882,0.02159 v 3.3549172 c -0.144735,-0.01675 -0.2870205,-0.04232 -0.435882,-0.04232 -1.9879051,0 -3.5994385,1.555693 -3.5994385,3.474721 0,1.919022 1.6115334,3.474659 3.5994385,3.474659 1.9882629,0 3.7441739,-1.512161 3.7441739,-3.431534 l 0.03469,-15.64417106 h 3.32486 c 0.313515,2.87824976 2.717625,5.12642666 5.707617,5.33739346 v 3.7285824"
     id="path893" />
  <path
     d="m -7.7919705,-1127.4474 c -51.6666995,0 -161.2942995,7.9729 -280.3111295,60.6361 -119.06926,52.6633 -247.73751,153.05912 -327.83388,332.76454 -60.47879,135.43473 -42.64463,332.55469 -32.78339,490.12477 0.7868,11.64466 1.04907,21.71571 1.62606,32.78339 -4.93062,2.20304 -0.62944,3.25211 -16.41792,3.25211 -23.7614,0 -55.49572,-7.76311 -95.0456,-26.22671 -15.73603,-7.34348 -32.57358,-9.86125 -49.20131,-9.86125 a 164.17921,164.17921 0 0 0 -85.18436,24.65311 c -25.64972,15.52622 -50.25037,39.70724 -57.38404,77.00163 -4.30118,22.97457 0.57699,57.384066 22.92214,85.236766 22.34516,27.8528 56.96442,50.6175997 111.46352,72.1235 11.90693,4.7208 23.97122,9.2318 36.08796,13.1133 24.60065,7.7632 53.50249,16.2082 75.37556,27.8528 21.92553,11.6971 34.82908,25.4399 39.34007,36.088 4.93062,11.434804 6.34686,29.269004 -9.80879,62.262204 a 24.443294,24.443294 0 0 0 -1.62606,3.3045 c -0.20981,0.7868 -1.04906,1.4163 -1.6785,3.2522 -6.55668,14.7918 -150.17415,327.8338 -449.10616,377.0351 a 75.74274,75.74274 0 0 0 -63.9408,78.6802 c 0.6295,11.2775 4.3012,23.3417 8.1828,32.7834 14.582,34.1996 45.6869,59.4297 96.7241,81.9322 47.1032,20.9289 120.48549,39.3401 217.9964,55.758 2.46531,6.7665 5.76988,19.4078 9.86125,37.6616 0,0.4196 -0.20982,1.2588 0,1.6785 3.67174,16.9949 7.13366,35.6683 13.11335,55.7055 5.92724,20.4568 21.08628,40.5989 39.34007,50.8274 18.20134,10.2284 35.45851,11.4873 45.89674,11.4873 21.71572,0 39.75969,-4.511 59.0101,-8.2352 31.73432,-6.1371 70.07777,-13.1134 119.64625,-13.1134 27.43314,0 56.12516,1.8883 85.23681,6.6091 49.83075,8.1828 98.7698,40.5465 157.36027,81.93234 84.81718,60.0592 186.68169,132.7596 339.32118952,132.7596 2.62269998,0 5.50759998,-1.4162 8.18269998,-1.6261 2.6227005,0.2099 5.5076005,0 8.1828005,0 4.3011,0.2099 8.8121,1.6261 13.1133,1.6261 152.6395,0 254.2942,-72.7004 339.3212,-132.7596 58.3807,-41.43824 107.5295,-73.74954 157.3603,-81.98474 a 533.45129,533.45129 0 0 1 85.2368,-6.5042 c 47.9424,0 85.8662,6.137 121.3247,13.1133 22.555,4.4586 39.7073,6.5042 57.3316,6.5042 h 3.3046 c 16.1556,0 34.8291,-4.4585 50.7749,-16.3654 a 87.597213,87.597213 0 0 0 31.1573,-44.2707 c 5.9797,-20.0897 9.2318,-39.3401 13.1134,-57.3316 a 345.66805,345.66805 0 0 1 9.8612,-37.7665 c 97.5634,-16.3654 170.89327,-34.7766 217.99637,-55.7055 51.0372,-22.555 82.1421,-47.9424 96.7242,-81.9322 4.3011,-9.8613 7.5532,-21.5059 8.1827,-32.7834 a 76.057461,76.057461 0 0 0 -63.9407,-78.6802 c -150.8036,-24.8104 -261.42787,-115.5548 -336.01657,-203.257 -74.1692,-87.2825 -111.0439,-170.6834 -113.0896,-175.4042 v -1.6261 a 24.443294,24.443294 0 0 0 -1.6785,-3.3045 c -16.3655,-32.9932 -16.3655,-50.6176 -11.4349,-62.262204 4.511,-10.6481 17.4146,-24.3909 39.3401,-36.088 21.9255,-11.6446 50.6175,-20.0896 75.3756,-27.8528 12.3265,-3.8815 24.6006,-8.6023 36.0879,-13.1133 47.7326,-18.8832003 80.516,-38.5008 103.2283,-62.3147 22.7648,-23.7614 33.2031,-53.240196 32.8359,-78.680096 -1.0491,-53.65986 -41.0186,-89.32818 -86.9153,-106.48045 l -1.6261,-1.67851 c -0.4196,-0.20982 -1.2064,0.20981 -1.6261,0 a 157.57008,157.57008 0 0 0 -59.0101,-11.4873 122.21647,122.21647 0 0 0 -55.7579,11.4873 c -35.6684,16.78509 -65.5668,25.02028 -88.489,26.22671 h -1.6785 c -1.4162,0 -0.3671,0.20981 -1.5736,0 -6.8189,-0.83926 -4.7208,-2.09814 -8.2352,-3.30457 0.6295,-8.96953 1.0491,-16.99491 1.6261,-26.22671 v -6.55668 c 10.0711,-157.51762 27.6954,-354.42776 -32.7834,-490.07231 -80.0964,-179.70542 -208.5548,-281.72734 -327.8339,-334.39054 a 704.81662,704.81662 0 0 0 -280.2586,-59.0101 h -6.6091 z m 0,104.9068 H 38.10473 c 41.9627,0 137.2706,6.5567 237.614,50.77494 100.4483,44.27068 206.1419,124.83914 275.3805,280.31108 39.34,88.12175 33.0456,283.56319 22.9746,440.92346 v 6.55667 c -1.4163,21.92553 -3.8816,43.27408 -4.8782,63.99318 a 52.138701,52.138701 0 0 0 16.3655,39.34006 c 8.1827,8.39255 42.6446,35.40607 99.9762,37.66157 h 3.2521 c 42.4873,-1.6261 86.9153,-14.5296 132.8121,-36.08796 a 40.231774,40.231774 0 0 1 11.4872,-1.57361 c 6.5567,0 15.1591,1.57361 19.6701,3.25212 0.4196,0.20981 1.2064,-0.20982 1.626,0 a 31.996587,31.996587 0 0 0 3.3046,1.62605 c 12.2741,4.30118 17.9915,9.2318 19.6176,11.4873 0.4196,0.4196 -0.1574,1.4162 0,1.6261 -0.577,1.049 -1.2064,1.049 -3.2521,3.3045 -7.6058,7.9729 -28.4822,22.292696 -67.1929,37.661596 a 418.26358,418.26358 0 0 1 -27.9052,9.8612 c -24.758,7.7631 -60.0067,18.4112 -93.3671,36.0355 -33.4128,17.6244 -68.714,43.6412997 -86.9153,86.9153 -19.4602,45.6345 -11.2775,95.884904 11.4873,144.247004 0.2098,0.7868 -0.2098,0.9966 0,1.5736 0.7868,2.3079 1.6261,3.5143 1.6261,3.3045 4.7208,10.8579 44.4805,103.4906 129.5075,203.257 76.4246,89.7478 192.6089,182.5379 347.50387,222.9271 -6.5567,4.3011 -2.0982,4.0913 -14.7919,9.8612 -37.6615,16.5753 -102.44147,34.4095 -208.13517,50.7749 -29.8984,4.511 -52.2436,32.8359 -60.6886,52.4534 -8.3925,19.7225 -12.6937,39.1827 -17.9915,63.9932 -2.4653,11.4349 -5.5601,21.8731 -8.2352,32.731 -7.1336,-0.577 -13.1133,-0.577 -26.2267,-3.2522 a 717.24808,717.24808 0 0 0 -140.9423,-14.7918 c -33.5702,0 -67.1929,2.4653 -101.6548,8.2352 -80.516,13.5329 -143.1978,58.5904 -201.5785,99.9762 -85.2368,60.0591 -157.7799,113.08964 -278.685,113.08964 -4.8782,0 -9.8088,0.2098 -14.7394,0 a 35.038885,35.038885 0 0 0 -6.5567005,0 c -2.0981,0.2098 -5.7699,0 -8.18269998,0 -120.90509952,0 -193.86789952,-53.03054 -278.68503952,-113.08964 -58.59047,-41.4382 -121.06249,-86.6531 -201.5785,-99.9762 a 614.01975,614.01975 0 0 0 -101.65473,-8.2352 721.75908,721.75908 0 0 0 -140.99479,14.7918 c -12.69373,2.4653 -17.41454,3.8816 -24.5482,4.8782 -2.88494,-11.4348 -7.18612,-22.2927 -9.86125,-34.4094 -4.93062,-22.555 -8.18273,-42.3824 -16.36546,-62.2622 a 100.34339,100.34339 0 0 0 -19.67004,-31.1574 c -9.86124,-10.4907 -24.39084,-18.8832 -40.96612,-21.2961 -105.53628,-16.4179 -172.1521,-35.8781 -209.8137,-52.4534 -13.1133,-5.7699 -8.2352,-5.3502 -14.7919,-9.8612 326.78487,-84.45 469.03854,-407.7205 477.01146,-426.1841 l 1.62606,-3.2521 c 0.20981,-0.6294 -0.20981,-0.8392 0,-1.6785 22.76478,-48.3096 30.94752,-98.507504 11.4873,-144.246904 -18.4636,-43.2216003 -53.50249,-69.2385 -86.86287,-86.8629 -33.41283,-17.6243 -67.03547,-28.2724 -91.79348,-36.0355 -12.06429,-3.8815 -23.39423,-7.3435 -29.53128,-9.8612 -44.06087,-17.4146 -63.31128,-33.989796 -68.81889,-40.966096 0,1.049 -1.25888,-3.462 6.55668,-8.18278 8.60236,-5.14043 23.7614,-8.23518 31.15733,-8.23518 4.09137,0 3.88156,0.20981 3.25211,0 49.20131,22.97456 95.88486,36.08796 140.9948,36.08796 62.26221,0 99.55659,-27.06597 109.78501,-37.71402 a 52.086247,52.086247 0 0 0 14.73941,-39.34006 c -1.20643,-22.92215 -3.46192,-46.31638 -4.87817,-70.44495 -9.86124,-157.57008 -16.41792,-352.85416 22.92215,-440.97591 69.23851,-155.26213 173.56837,-236.0404 273.7544,-280.31108 a 619.4749,619.4749 0 0 1 239.3450095,-50.77494 z"
     id="path1218"
     style="stroke-width:52.4534" />
</svg>
