<?xml version="1.0" encoding="UTF-8" standalone="no"?>
<svg
   width="23"
   height="23"
   viewBox="0 0 23 23"
   fill="none"
   xmlns="http://www.w3.org/2000/svg"> />
  <path
     style="fill:#ffffff;fill-opacity:1;fill-rule:nonzero;stroke:none;stroke-width:1.33333"
     d="m 21.146964,9.3995998 c -0.18971,0.01785 -0.380083,0.02714 -0.570692,0.028 -2.090296,2.04e-4 -4.039863,-1.016844 -5.184893,-2.7050415 v 9.2112977 c 0,3.759991 -3.157514,6.808098 -7.0524649,6.808098 -3.894952,0 -7.0524651,-3.048107 -7.0524651,-6.808098 0,-3.759993 3.1575131,-6.8080992 7.0524651,-6.8080992 0.1472474,0 0.291147,0.01277 0.435882,0.02159 v 3.3549172 c -0.144735,-0.01675 -0.2870205,-0.04232 -0.435882,-0.04232 -1.9879051,0 -3.5994385,1.555693 -3.5994385,3.474721 0,1.919022 1.6115334,3.474659 3.5994385,3.474659 1.9882629,0 3.7441739,-1.512161 3.7441739,-3.431534 l 0.03469,-15.64417106 h 3.32486 c 0.313515,2.87824976 2.717625,5.12642666 5.707617,5.33739346 v 3.7285824"
     id="path893" />
</svg>
