<svg width="20" height="18" viewBox="0 0 20 18" fill="none" xmlns="http://www.w3.org/2000/svg">
<path fill-rule="evenodd" clip-rule="evenodd" d="M9.71114 4.78828L9.75449 5.56683L9.03194 5.4715C6.40184 5.10606 4.10411 3.86673 2.15321 1.7853L1.19944 0.752529L0.953773 1.51519C0.433533 3.21529 0.765908 5.01073 1.84974 6.21827C2.42779 6.8856 2.29773 6.98094 1.3006 6.58372C0.953773 6.45661 0.6503 6.36127 0.621397 6.40894C0.52024 6.52016 0.867066 7.96604 1.14164 8.53804C1.51737 9.33248 2.28327 10.111 3.12144 10.5718L3.82954 10.9372L2.99138 10.9531C2.18212 10.9531 2.15321 10.969 2.23992 11.3027C2.52894 12.3355 3.67058 13.4318 4.94228 13.9084L5.83825 14.2421L5.05789 14.7506C3.9018 15.4814 2.54339 15.8945 1.18499 15.9263C0.534691 15.9422 0 16.0058 0 16.0534C0 16.2123 1.76303 17.1021 2.78906 17.4516C5.86715 18.4844 9.52328 18.0395 12.269 16.2759C14.2199 15.0207 16.1708 12.5261 17.0812 10.111C17.5725 8.82403 18.0639 6.47249 18.0639 5.34439C18.0639 4.61351 18.1072 4.51817 18.9165 3.64429C19.3934 3.13585 19.8414 2.57974 19.9281 2.42085C20.0726 2.11896 20.0581 2.11896 19.3211 2.38907C18.0928 2.86574 17.9194 2.80218 18.5263 2.08719C18.9743 1.57875 19.509 0.657196 19.509 0.387087C19.509 0.33942 19.2922 0.418864 19.0466 0.561863C18.7864 0.720751 18.2084 0.959082 17.7749 1.10208L16.9945 1.37219L16.2864 0.847862C15.8962 0.561864 15.3471 0.244089 15.0581 0.148756C14.321 -0.073687 13.1939 -0.0419098 12.5291 0.212311C10.7227 0.927306 9.58108 2.77041 9.71114 4.78828Z" fill="white"/>
</svg>
