<svg width="23" height="19" viewBox="0 0 23 19" fill="none" xmlns="http://www.w3.org/2000/svg">
<path d="M11.7367 0C13.4213 0.0496491 15.348 0.0992983 17.2748 0.186184C18.2437 0.235833 19.2015 0.335132 20.1594 0.496491C21.5357 0.744737 22.3394 1.72531 22.5926 3.25202C22.7468 4.22018 22.8459 5.20075 22.9009 6.18132C22.967 7.34807 23 8.52724 23 9.70641C22.989 11.2828 22.9119 12.8591 22.7027 14.4231C22.6146 15.0561 22.5266 15.6891 22.2183 16.2477C21.7008 17.1786 20.9301 17.6627 19.9832 17.8116C18.6841 18.0226 17.3739 18.0847 16.0747 18.1468C13.6304 18.2461 11.1862 18.2833 8.74198 18.1964C7.06845 18.1344 5.39493 18.0226 3.7214 17.9109C3.19291 17.8737 2.65342 17.7992 2.15797 17.5634C1.16706 17.0793 0.572517 16.2353 0.407367 15.0437C0.275246 14.0755 0.165147 13.095 0.0990865 12.102C0.0330261 10.9973 0 9.88018 0 8.77549C0.0110101 7.13706 0.077065 5.51105 0.297266 3.88505C0.385347 3.23961 0.484441 2.58176 0.803733 2.01079C1.32121 1.09228 2.05888 0.558553 3.00574 0.446842C4.22786 0.310307 5.46099 0.186184 6.69411 0.124123C8.29057 0.0620614 9.89804 0.0496491 11.7367 0ZM9.14935 13.0205C11.1642 11.7296 13.146 10.4511 15.1719 9.16027C13.146 7.85698 11.1642 6.59092 9.14935 5.30005C9.14935 7.8818 9.14935 10.4263 9.14935 13.0205Z" fill="white"/>
</svg>
